<svg width="44" height="44" viewBox="0 0 44 44" fill="none" xmlns="http://www.w3.org/2000/svg">
<g id="&#231;&#188;&#150;&#231;&#187;&#132; 6">
<path id="&#229;&#189;&#162;&#231;&#138;&#182;&#231;&#187;&#147;&#229;&#144;&#136;" d="M21.5 5C34.625 5 39 9.375 39 22.5C39 35.625 34.625 40 21.5 40C8.375 40 4 35.625 4 22.5C4 9.375 8.375 5 21.5 5Z" fill="#434AF9"/>
<path id="&#232;&#183;&#175;&#229;&#190;&#132;" d="M26.6867 20.8655L26.2222 20.4131V18.379C26.2222 17.9863 25.8947 17.668 25.4908 17.668C25.0869 17.668 24.7594 17.9863 24.7594 18.379V18.9877L21.9444 16.2453C21.8929 16.195 21.8229 16.1667 21.7499 16.1667C21.6769 16.1667 21.6069 16.195 21.5554 16.2453L16.8131 20.8655L15.0772 22.5573C14.9119 22.718 15.0296 22.9931 15.2632 22.9931H16.8131V26.8255C16.8131 27.2474 17.1653 27.5898 17.5993 27.5898H20.2687V24.1049C20.2687 23.3101 20.9318 22.6656 21.7504 22.6656C22.1592 22.6656 22.5293 22.8272 22.7971 23.0874C23.0648 23.3477 23.2311 23.7075 23.2311 24.1049V27.5898H25.9005C26.3345 27.5898 26.6867 27.2474 26.6867 26.8255V22.9931H28.2366C28.4711 22.9931 28.5879 22.718 28.4226 22.5573L26.6867 20.8655Z" fill="white"/>
</g>
</svg>
