<svg width="16" height="16" viewBox="0 0 16 16" fill="none" xmlns="http://www.w3.org/2000/svg">
<g id="icon-notice">
<path id="Vector" d="M8.0002 1.99689C4.66113 1.99689 1.99707 4.66095 1.99707 8.00001C1.99707 11.3391 4.66113 14.0031 8.0002 14.0031C11.3393 14.0031 14.0033 11.3391 14.0033 8.00001C14.0033 4.66095 11.3393 1.99689 8.0002 1.99689ZM7.54395 5.11095C7.66895 4.98595 7.7752 4.90314 7.97676 4.90314C8.20176 4.88595 8.40957 4.9922 8.49238 5.15157C8.5877 5.26407 8.64082 5.51407 8.61738 5.66095C8.61738 5.70314 8.5877 5.98126 8.5752 6.05783L8.40957 8.16407C8.40957 8.37189 8.36738 8.5797 8.28457 8.73907C8.24238 8.86407 8.11895 8.94689 7.95176 8.94689C7.82676 8.94689 7.70332 8.86407 7.66113 8.73907C7.57832 8.53126 7.53613 8.36564 7.53613 8.16407L7.42363 6.10001C7.38144 5.72657 7.38144 5.85157 7.38144 5.64376C7.38301 5.44376 7.4252 5.27657 7.54395 5.11095ZM8.45645 10.9297C8.33145 11.0547 8.16582 11.0953 8.04082 11.0953C7.8752 11.0953 7.70801 11.0531 7.58457 10.9297C7.45957 10.8047 7.37676 10.6391 7.37676 10.4375C7.37676 10.2719 7.41895 10.1047 7.54238 9.98126C7.66738 9.85626 7.83301 9.77345 7.99863 9.77345C8.16426 9.77345 8.33145 9.85626 8.45488 9.98126C8.57988 10.1063 8.62051 10.2719 8.62051 10.4375C8.61738 10.6391 8.5752 10.8047 8.45645 10.9297Z" fill="#FF6D6D"/>
<path id="Vector_2" d="M7.54365 5.11088C7.66865 4.98588 7.7749 4.90306 7.97647 4.90306C8.20147 4.88588 8.40928 4.99213 8.49209 5.1515C8.5874 5.264 8.64053 5.514 8.61709 5.66088C8.61709 5.70306 8.5874 5.98119 8.5749 6.05775L8.40928 8.164C8.40928 8.37181 8.36709 8.57963 8.28428 8.739C8.24209 8.864 8.11865 8.94681 7.95146 8.94681C7.82646 8.94681 7.70303 8.864 7.66084 8.739C7.57803 8.53119 7.53584 8.36556 7.53584 8.164L7.42334 6.09994C7.38115 5.7265 7.38115 5.8515 7.38115 5.64369C7.38271 5.44369 7.4249 5.2765 7.54365 5.11088ZM8.45615 10.9296C8.33115 11.0546 8.16553 11.0953 8.04053 11.0953C7.8749 11.0953 7.70771 11.0531 7.58428 10.9296C7.45928 10.8046 7.37646 10.639 7.37646 10.4374C7.37646 10.2718 7.41865 10.1046 7.54209 9.98119C7.66709 9.85619 7.83271 9.77338 7.99834 9.77338C8.16396 9.77338 8.33115 9.85619 8.45459 9.98119C8.57959 10.1062 8.62022 10.2718 8.62022 10.4374C8.61709 10.639 8.5749 10.8046 8.45615 10.9296Z" fill="white"/>
</g>
</svg>
