<svg width="26" height="26" viewBox="0 0 26 26" fill="none" xmlns="http://www.w3.org/2000/svg">
<g id="Frame 1000006782">
<g id="Spinner-Sharp/Spinner-Sharp-7">
<path id="Ellipse 26" d="M16.5995 3.67042C17.8247 4.14311 18.9448 4.85249 19.8958 5.75806C20.8468 6.66363 21.6102 7.74765 22.1423 8.94824C22.6744 10.1488 22.9648 11.4425 22.997 12.7553C23.0292 14.0681 22.8024 15.3744 22.3297 16.5996C21.857 17.8248 21.1477 18.9449 20.2421 19.896C19.3365 20.847 18.2525 21.6104 17.0519 22.1425C15.8513 22.6746 14.5577 22.965 13.2449 22.9971C11.932 23.0293 10.6257 22.8026 9.40053 22.3299C8.17533 21.8572 7.05523 21.1478 6.10419 20.2422C5.15314 19.3367 4.38978 18.2526 3.85767 17.0521C3.32557 15.8515 3.03515 14.5578 3.00299 13.245C2.97084 11.9322 3.19758 10.6259 3.67027 9.40068C4.14296 8.17548 4.85234 7.05538 5.75791 6.10434C6.66348 5.15329 7.7475 4.38993 8.94809 3.85782C10.1487 3.32572 11.4423 3.0353 12.7551 3.00314C14.068 2.97099 15.3743 3.19773 16.5995 3.67042L16.5995 3.67042Z" stroke="white" stroke-opacity="0.16" stroke-width="3.33333"/>
<path id="Ellipse 27" d="M16.5995 3.67042C17.8247 4.14311 18.9448 4.85249 19.8958 5.75806C20.8468 6.66363 21.6102 7.74765 22.1423 8.94824C22.6744 10.1488 22.9648 11.4425 22.997 12.7553C23.0292 14.0681 22.8024 15.3744 22.3297 16.5996C21.857 17.8248 21.1477 18.9449 20.2421 19.896C19.3365 20.847 18.2525 21.6104 17.0519 22.1425C15.8513 22.6746 14.5577 22.965 13.2449 22.9971C11.932 23.0293 10.6257 22.8026 9.40053 22.3299" stroke="white" stroke-width="3.33333"/>
</g>
</g>
</svg>
