<svg width="14" height="14" viewBox="0 0 14 14" fill="none" xmlns="http://www.w3.org/2000/svg">
<g id="sousuo">
<path id="&#229;&#189;&#162;&#231;&#138;&#182;" fill-rule="evenodd" clip-rule="evenodd" d="M12.0922 10.713L13.7135 12.3322C14.0913 12.7096 14.0913 13.3304 13.7378 13.72C13.5428 13.9026 13.299 14 13.043 14C12.787 14 12.5432 13.9148 12.3482 13.72L10.727 12.1009C9.60552 12.9287 8.21589 13.4278 6.71655 13.4278C3.01087 13.4278 0 10.4209 0 6.72C0 3.01913 2.99868 0 6.70436 0C10.41 0 13.4209 3.00696 13.4209 6.70783C13.4209 8.20522 12.9211 9.59304 12.0922 10.713ZM1.95052 6.70775C1.95052 9.33732 4.09592 11.4678 6.71671 11.4678C9.33751 11.4678 11.4707 9.33732 11.4829 6.70775C11.4829 4.07819 9.33751 1.94775 6.71671 1.94775C4.08373 1.94775 1.95052 4.09036 1.95052 6.70775Z" fill="#BCC1C9"/>
</g>
</svg>
