<svg width="48" height="48" viewBox="0 0 48 48" fill="none" xmlns="http://www.w3.org/2000/svg">
<g id="&#231;&#188;&#150;&#231;&#187;&#132; 16" clip-path="url(#clip0_857_6309)">
<circle id="&#230;&#164;&#173;&#229;&#156;&#134;&#229;&#189;&#162;" cx="24" cy="24" r="24" fill="#FFA852"/>
<g id="wanchengchenggong">
<path id="&#229;&#189;&#162;&#231;&#138;&#182;&#231;&#187;&#147;&#229;&#144;&#136;" fill-rule="evenodd" clip-rule="evenodd" d="M26.9865 16C27.0646 14.8954 26.4215 13 23.9963 13C21.5712 13 20.9281 14.8954 21.0062 16L21.8549 28C21.933 29.1046 22.8918 30 23.9963 30C25.1009 30 26.0597 29.1046 26.1378 28L26.9865 16ZM23.9963 33C22.8918 33 21.9963 33.8954 21.9963 35C21.9963 36.1046 22.8918 37 23.9963 37C25.1009 37 25.9963 36.1046 25.9963 35C25.9963 33.8954 25.1009 33 23.9963 33Z" fill="white"/>
</g>
</g>
<defs>
<clipPath id="clip0_857_6309">
<rect width="48" height="48" fill="white"/>
</clipPath>
</defs>
</svg>
