<svg width="160" height="160" viewBox="0 0 160 160" fill="none" xmlns="http://www.w3.org/2000/svg">
<g id="Text Tasks">
<g id="Text Tasks_2">
<g id="&#229;&#136;&#134;&#231;&#187;&#132; 5 copy">
<rect id="&#231;&#159;&#169;&#229;&#189;&#162;" opacity="0.01" x="0.5" y="0.5" width="159" height="159" stroke="#DCDEE0" stroke-dasharray="5"/>
<path id="&#229;&#144;&#136;&#229;&#185;&#182;&#229;&#189;&#162;&#231;&#138;&#182;" opacity="0.820108" fill-rule="evenodd" clip-rule="evenodd" d="M34 41H54V119H37H34H20V61H34V41Z" fill="url(#paint0_linear_1_4088)"/>
<path id="&#229;&#144;&#136;&#229;&#185;&#182;&#229;&#189;&#162;&#231;&#138;&#182;_2" fill-rule="evenodd" clip-rule="evenodd" d="M119 33C119.113 33 119.226 32.9969 119.338 32.9906C119.339 32.9938 119.34 32.9969 119.341 33H119ZM116.973 33C116.985 32.8871 116.993 32.7729 116.997 32.6576C117.624 32.8793 118.298 33 119 33H116.973ZM114 36.7439C113.531 36.9098 113.026 37 112.5 37C110.015 37 108 34.9853 108 32.5C108 30.0147 110.015 28 112.5 28C112.7 28 112.897 28.013 113.09 28.0383C113.031 27.701 113 27.3541 113 27C113 23.6863 115.686 21 119 21C121.616 21 123.841 22.6741 124.662 25.0094C124.774 25.0031 124.887 25 125 25C128.314 25 131 27.6863 131 31C131 34.3137 128.314 37 125 37C124.659 37 124.325 36.9716 124 36.917V37H114V36.7439Z" fill="url(#paint1_linear_1_4088)"/>
<path id="&#229;&#144;&#136;&#229;&#185;&#182;&#229;&#189;&#162;&#231;&#138;&#182;_3" opacity="0.820108" fill-rule="evenodd" clip-rule="evenodd" d="M133 50V64H141V147H115V64V50H133Z" fill="url(#paint2_linear_1_4088)"/>
<path id="&#229;&#144;&#136;&#229;&#185;&#182;&#229;&#189;&#162;&#231;&#138;&#182;_4" fill-rule="evenodd" clip-rule="evenodd" d="M87 19V32H98V127H61V32V19H87Z" fill="url(#paint3_linear_1_4088)"/>
</g>
<path id="&#229;&#189;&#162;&#231;&#138;&#182;" fill-rule="evenodd" clip-rule="evenodd" d="M117.017 76.7821L112.139 73.0268L131.06 70.7451L123.578 81.8558L118.376 77.8039L126.005 73.2191L117.017 76.7821ZM119.26 79.776L116.533 81.4203L117.559 78.6012L119.26 79.776Z" fill="#DDDFE1"/>
<path id="Rectangle" fill-rule="evenodd" clip-rule="evenodd" d="M0 137C0 137 45.5 122.5 80 122.5C114.5 122.5 160 137 160 137V158H0V137Z" fill="url(#paint4_radial_1_4088)"/>
<g id="&#231;&#188;&#150;&#231;&#187;&#132; 9">
<g id="&#231;&#159;&#169;&#229;&#189;&#162;_2">
<path id="&#232;&#146;&#153;&#231;&#137;&#136;" d="M52.5 89V127L82.5 135.5L111 125V88L82.5 95.5L52.5 89Z" fill="url(#paint5_linear_1_4088)"/>
<mask id="mask0_1_4088" style="mask-type:luminance" maskUnits="userSpaceOnUse" x="52" y="88" width="59" height="48">
<path id="&#232;&#146;&#153;&#231;&#137;&#136;_2" d="M52.5 89V127L82.5 135.5L111 125V88L82.5 95.5L52.5 89Z" fill="white"/>
</mask>
<g mask="url(#mask0_1_4088)">
<g id="&#231;&#159;&#169;&#229;&#189;&#162;_3" style="mix-blend-mode:multiply" opacity="0.356627">
<path fill-rule="evenodd" clip-rule="evenodd" d="M50 86H82L82.5 146H50V86Z" fill="url(#paint6_linear_1_4088)"/>
</g>
</g>
</g>
<path id="&#232;&#183;&#175;&#229;&#190;&#132; 4" fill-rule="evenodd" clip-rule="evenodd" d="M82.5 95.5L88.5 110L119 99.5L111 88L82.5 95.5Z" fill="url(#paint7_linear_1_4088)"/>
<path id="&#232;&#183;&#175;&#229;&#190;&#132; 5" fill-rule="evenodd" clip-rule="evenodd" d="M52.5 89C52 89 40.5 101.5 40.5 101.5L74.5 110L82.5 95.5C82.5 95.5 53 89 52.5 89Z" fill="url(#paint8_linear_1_4088)"/>
<g id="&#231;&#159;&#169;&#229;&#189;&#162;_4">
<path id="&#232;&#146;&#153;&#231;&#137;&#136;_3" opacity="0.513081" fill-rule="evenodd" clip-rule="evenodd" d="M52.5 89L80 83.5L111 88L85 96L52.5 89Z" fill="url(#paint9_linear_1_4088)"/>
<mask id="mask1_1_4088" style="mask-type:luminance" maskUnits="userSpaceOnUse" x="52" y="83" width="59" height="13">
<path id="&#232;&#146;&#153;&#231;&#137;&#136;_4" fill-rule="evenodd" clip-rule="evenodd" d="M52.5 89L80 83.5L111 88L85 96L52.5 89Z" fill="white"/>
</mask>
<g mask="url(#mask1_1_4088)">
<g id="&#231;&#159;&#169;&#229;&#189;&#162;_5" style="mix-blend-mode:multiply" opacity="0.545989">
<rect x="80" y="79" width="32" height="35" fill="url(#paint10_linear_1_4088)"/>
</g>
</g>
</g>
</g>
<g id="&#229;&#136;&#134;&#231;&#187;&#132; 3">
<g id="&#229;&#136;&#134;&#231;&#187;&#132; 3 copy">
<path id="&#228;&#184;&#137;&#232;&#167;&#146;&#229;&#189;&#162;" opacity="0.6" d="M138.531 111.509C138.8 110.529 140.19 110.529 140.46 111.509L144.643 126.735C144.818 127.372 144.339 128 143.679 128H135.312C134.652 128 134.173 127.372 134.348 126.735L138.531 111.509Z" fill="url(#paint11_linear_1_4088)"/>
<rect id="&#231;&#159;&#169;&#229;&#189;&#162;_6" opacity="0.6" x="137.997" y="128" width="2.99747" height="10" fill="url(#paint12_linear_1_4088)"/>
</g>
<g id="&#229;&#136;&#134;&#231;&#187;&#132; 3 copy 2">
<path id="&#228;&#184;&#137;&#232;&#167;&#146;&#229;&#189;&#162;_2" opacity="0.6" d="M19.5311 111.509C19.8004 110.529 21.1903 110.529 21.4596 111.509L25.6431 126.735C25.8181 127.372 25.339 128 24.6789 128H16.3118C15.6517 128 15.1727 127.372 15.3476 126.735L19.5311 111.509Z" fill="url(#paint13_linear_1_4088)"/>
<rect id="&#231;&#159;&#169;&#229;&#189;&#162;_7" opacity="0.6" x="18.9966" y="128" width="2.99747" height="10" fill="url(#paint14_linear_1_4088)"/>
</g>
</g>
<path id="&#232;&#183;&#175;&#229;&#190;&#132;-4" d="M47.0609 108.03C12.0005 131.491 77.9506 125.602 129.608 84.9986" stroke="#CED1D3" stroke-dasharray="2"/>
</g>
</g>
<defs>
<linearGradient id="paint0_linear_1_4088" x1="15.2324" y1="119" x2="15.2324" y2="41" gradientUnits="userSpaceOnUse">
<stop stop-color="#F1F2F4" stop-opacity="0.01"/>
<stop offset="1" stop-color="#EFF0F2"/>
</linearGradient>
<linearGradient id="paint1_linear_1_4088" x1="137.36" y1="41.3611" x2="137.36" y2="21" gradientUnits="userSpaceOnUse">
<stop stop-color="#F1F2F4" stop-opacity="0.01"/>
<stop offset="1" stop-color="#EFF0F2"/>
</linearGradient>
<linearGradient id="paint2_linear_1_4088" x1="144.646" y1="147" x2="144.646" y2="50" gradientUnits="userSpaceOnUse">
<stop stop-color="#F1F2F4" stop-opacity="0.01"/>
<stop offset="1" stop-color="#EFF0F2"/>
</linearGradient>
<linearGradient id="paint3_linear_1_4088" x1="103.188" y1="127" x2="103.188" y2="19" gradientUnits="userSpaceOnUse">
<stop stop-color="#F1F2F4" stop-opacity="0.01"/>
<stop offset="1" stop-color="#EFF0F2"/>
</linearGradient>
<radialGradient id="paint4_radial_1_4088" cx="0" cy="0" r="1" gradientUnits="userSpaceOnUse" gradientTransform="translate(80 127.397) rotate(90) scale(35.5 668.46)">
<stop stop-color="#E0E2E6"/>
<stop offset="1" stop-color="white" stop-opacity="0.01"/>
</radialGradient>
<linearGradient id="paint5_linear_1_4088" x1="48.1665" y1="80.9908" x2="73.3831" y2="136.431" gradientUnits="userSpaceOnUse">
<stop stop-color="#F2F3F5"/>
<stop offset="1" stop-color="#DCDEE0"/>
</linearGradient>
<linearGradient id="paint6_linear_1_4088" x1="83.6508" y1="81.3995" x2="48.35" y2="80.1491" gradientUnits="userSpaceOnUse">
<stop stop-color="#C4C7CA"/>
<stop offset="1" stop-color="#F2F3F4"/>
</linearGradient>
<linearGradient id="paint7_linear_1_4088" x1="106.342" y1="89.2416" x2="97.8668" y2="108.747" gradientUnits="userSpaceOnUse">
<stop stop-color="#E5E7EA"/>
<stop offset="1" stop-color="#F8F8F8"/>
</linearGradient>
<linearGradient id="paint8_linear_1_4088" x1="42.8619" y1="109.539" x2="81.4363" y2="100.463" gradientUnits="userSpaceOnUse">
<stop stop-color="#F3F4F5"/>
<stop offset="1" stop-color="#E6E7E8"/>
</linearGradient>
<linearGradient id="paint9_linear_1_4088" x1="50.4363" y1="92.6678" x2="54.3954" y2="109.09" gradientUnits="userSpaceOnUse">
<stop stop-color="#CBCDCE"/>
<stop offset="1" stop-color="#F1F1F2"/>
</linearGradient>
<linearGradient id="paint10_linear_1_4088" x1="87.8053" y1="79.1423" x2="64.7147" y2="105.507" gradientUnits="userSpaceOnUse">
<stop stop-color="#CDCED0"/>
<stop offset="1" stop-color="#E8E9EA"/>
</linearGradient>
<linearGradient id="paint11_linear_1_4088" x1="134" y1="108" x2="134" y2="128" gradientUnits="userSpaceOnUse">
<stop stop-color="#F2F3F5"/>
<stop offset="1" stop-color="#DCDEE0"/>
</linearGradient>
<linearGradient id="paint12_linear_1_4088" x1="140.994" y1="138" x2="140.994" y2="128" gradientUnits="userSpaceOnUse">
<stop stop-color="white"/>
<stop offset="1" stop-color="#DCDEE0"/>
</linearGradient>
<linearGradient id="paint13_linear_1_4088" x1="15" y1="108" x2="15" y2="128" gradientUnits="userSpaceOnUse">
<stop stop-color="#F2F3F5"/>
<stop offset="1" stop-color="#DCDEE0"/>
</linearGradient>
<linearGradient id="paint14_linear_1_4088" x1="21.994" y1="138" x2="21.994" y2="128" gradientUnits="userSpaceOnUse">
<stop stop-color="white"/>
<stop offset="1" stop-color="#DCDEE0"/>
</linearGradient>
</defs>
</svg>
