<svg width="14" height="14" viewBox="0 0 14 14" fill="none" xmlns="http://www.w3.org/2000/svg">
<path id="&#229;&#189;&#162;&#231;&#138;&#182;&#231;&#187;&#147;&#229;&#144;&#136;" fill-rule="evenodd" clip-rule="evenodd" d="M1.70711 0.292893C1.31658 -0.0976311 0.683418 -0.0976311 0.292893 0.292893C-0.097631 0.683417 -0.097631 1.31658 0.292893 1.70711L5.25191 6.66612L0.292893 11.6251C-0.0976311 12.0157 -0.0976311 12.6488 0.292893 13.0393C0.683417 13.4299 1.31658 13.4299 1.70711 13.0393L6.66612 8.08033L11.6251 13.0393C12.0157 13.4299 12.6488 13.4299 13.0393 13.0393C13.4299 12.6488 13.4299 12.0157 13.0393 11.6251L8.08033 6.66612L13.0393 1.70711C13.4299 1.31658 13.4299 0.683418 13.0393 0.292894C12.6488 -0.0976302 12.0157 -0.0976298 11.6251 0.292894L6.66612 5.25191L1.70711 0.292893Z" fill="#979797"/>
</svg>
