<svg width="18" height="18" viewBox="0 0 18 18" fill="none" xmlns="http://www.w3.org/2000/svg">
<g id="Frame" clip-path="url(#clip0_1110_1758)">
<g id="Frame_2">
<path id="Vector" d="M7.28514 15C6.27981 14.6886 5.38494 14.1105 4.67636 13.3445C4.9407 13.0185 5.1 12.5974 5.1 12.1376C5.1 11.1034 4.29411 10.2649 3.3 10.2649C3.23987 10.2649 3.18042 10.268 3.1218 10.274C3.04194 9.86781 3 9.44728 3 9.0165C3 8.36401 3.09623 7.73489 3.27474 7.14367C3.28314 7.14379 3.29156 7.14385 3.3 7.14385C4.29411 7.14385 5.1 6.30544 5.1 5.2712C5.1 4.97429 5.03358 4.69355 4.91538 4.44412C5.60925 3.77289 6.45615 3.27056 7.39563 3C7.69332 3.60707 8.30001 4.02278 9 4.02278C9.69999 4.02278 10.3067 3.60707 10.6044 3C11.5439 3.27056 12.3907 3.77289 13.0846 4.44412C12.9664 4.69355 12.9 4.97429 12.9 5.2712C12.9 6.30544 13.7059 7.14385 14.7 7.14385C14.7084 7.14385 14.7169 7.14379 14.7253 7.14367C14.9038 7.73489 15 8.36401 15 9.0165C15 9.44728 14.9581 9.86781 14.8782 10.274C14.8196 10.268 14.7602 10.2649 14.7 10.2649C13.7059 10.2649 12.9 11.1034 12.9 12.1376C12.9 12.5974 13.0593 13.0185 13.3236 13.3445C12.6151 14.1105 11.7202 14.6886 10.7149 15C10.4828 14.2449 9.8028 13.6981 9 13.6981C8.1972 13.6981 7.51716 14.2449 7.28514 15Z" stroke="#333333" stroke-linejoin="round"/>
<path id="Vector_2" d="M9 11.625C10.4497 11.625 11.625 10.4497 11.625 9C11.625 7.55025 10.4497 6.375 9 6.375C7.55025 6.375 6.375 7.55025 6.375 9C6.375 10.4497 7.55025 11.625 9 11.625Z" stroke="#333333" stroke-linejoin="round"/>
</g>
</g>
<defs>
<clipPath id="clip0_1110_1758">
<rect width="18" height="18" fill="white"/>
</clipPath>
</defs>
</svg>
